<svg xmlns="http://www.w3.org/2000/svg" width="960" height="540" viewBox="0 0 960 540">
  <defs>
    <linearGradient id="dbg" x1="0%" y1="0%" x2="0%" y2="100%">
      <stop offset="0%" style="stop-color:#020617"/>
      <stop offset="100%" style="stop-color:#0f172a"/>
    </linearGradient>
  </defs>
  <rect width="960" height="540" fill="url(#dbg)"/>
  <rect x="0" y="0" width="200" height="540" fill="#020617" stroke="#1e293b"/>
  <text x="24" y="44" fill="#e2e8f0" font-family="system-ui,sans-serif" font-size="15" font-weight="700">TaskFlow</text>
  <text x="24" y="100" fill="#94a3b8" font-family="system-ui,sans-serif" font-size="12">Dashboard</text>
  <text x="24" y="130" fill="#64748b" font-family="system-ui,sans-serif" font-size="11">Projects</text>
  <text x="24" y="158" fill="#64748b" font-family="system-ui,sans-serif" font-size="11">My Tasks</text>
  <text x="24" y="186" fill="#64748b" font-family="system-ui,sans-serif" font-size="11">Team</text>
  <rect x="220" y="24" width="716" height="56" rx="12" fill="#0f172a" stroke="#1e293b"/>
  <text x="244" y="58" fill="#e2e8f0" font-family="system-ui,sans-serif" font-size="16" font-weight="600">Good morning, Alice</text>
  <rect x="220" y="100" width="228" height="96" rx="12" fill="#0f172a" stroke="#334155"/>
  <text x="240" y="132" fill="#94a3b8" font-family="system-ui,sans-serif" font-size="11">Open tasks</text>
  <text x="240" y="168" fill="#f1f5f9" font-family="system-ui,sans-serif" font-size="26" font-weight="700">24</text>
  <rect x="464" y="100" width="228" height="96" rx="12" fill="#0f172a" stroke="#334155"/>
  <text x="484" y="132" fill="#94a3b8" font-family="system-ui,sans-serif" font-size="11">Completed</text>
  <text x="484" y="168" fill="#34d399" font-family="system-ui,sans-serif" font-size="26" font-weight="700">18</text>
  <rect x="708" y="100" width="228" height="96" rx="12" fill="#0f172a" stroke="#334155"/>
  <text x="728" y="132" fill="#94a3b8" font-family="system-ui,sans-serif" font-size="11">Due this week</text>
  <text x="728" y="168" fill="#fbbf24" font-family="system-ui,sans-serif" font-size="26" font-weight="700">7</text>
  <rect x="220" y="220" width="716" height="280" rx="12" fill="#0f172a" stroke="#1e293b"/>
  <text x="244" y="256" fill="#e2e8f0" font-family="system-ui,sans-serif" font-size="13" font-weight="600">Task distribution</text>
  <rect x="260" y="290" width="520" height="12" rx="4" fill="#1e293b"/>
  <rect x="260" y="290" width="180" height="12" rx="4" fill="#6366f1"/>
  <rect x="260" y="330" width="520" height="12" rx="4" fill="#1e293b"/>
  <rect x="260" y="330" width="320" height="12" rx="4" fill="#8b5cf6"/>
  <rect x="260" y="370" width="520" height="12" rx="4" fill="#1e293b"/>
  <rect x="260" y="370" width="240" height="12" rx="4" fill="#22c55e"/>
  <text x="480" y="515" text-anchor="middle" fill="#64748b" font-family="system-ui,sans-serif" font-size="11">Representación del dashboard de productividad</text>
</svg>
